HIERARCHY
ROOT Hips
{
  OFFSET 284.663 95.99 -250.545
  CHANNELS 6 Xposition Yposition Zposition Zrotation Xrotation Yrotation
  JOINT ToSpine
  {
    OFFSET -2.69724 7.43032 -0.144315
    CHANNELS 3 Zrotation Xrotation Yrotation
    JOINT Spine
    {
      OFFSET -0.0310711 10.7595 1.96963
      CHANNELS 3 Zrotation Xrotation Yrotation
      JOINT Spine1
      {
        OFFSET 13.1342 3.43533 0.764692
        CHANNELS 3 Zrotation Xrotation Yrotation
        JOINT Neck
        {
          OFFSET 29.8703 7.82586 -0.130764
          CHANNELS 3 Zrotation Xrotation Yrotation
          JOINT Head
          {
            OFFSET 9.52751 0.295786 -0.907742
            CHANNELS 3 Zrotation Xrotation Yrotation
            End Site
            {
              OFFSET 16.4037 0.713936 2.7358
            }
          }
        }
        JOINT LeftShoulder
        {
          OFFSET 27.5574 4.95586 2.47156
          CHANNELS 3 Zrotation Xrotation Yrotation
          JOINT LeftArm
          {
            OFFSET 1.20734 -0.998971 20.1238
            CHANNELS 3 Zrotation Xrotation Yrotation
            JOINT LeftForeArm
            {
              OFFSET 26.8049 -0.0536703 -0.155908
              CHANNELS 3 Zrotation Xrotation Yrotation
              JOINT LeftHand
              {
                OFFSET 26.6817 0 0.320147
                CHANNELS 3 Zrotation Xrotation Yrotation
                End Site
                {
                  OFFSET 18.6119 0 0.382219
                }
              }
            }
          }
        }
        JOINT RightShoulder
        {
          OFFSET 27.5927 4.71444 -2.65209
          CHANNELS 3 Zrotation Xrotation Yrotation
          JOINT RightArm
          {
            OFFSET 2.83739 -1.17114 -18.7564
            CHANNELS 3 Zrotation Xrotation Yrotation
            JOINT RightForeArm
            {
              OFFSET 28.839 -0.0548439 1.22491
              CHANNELS 3 Zrotation Xrotation Yrotation
              JOINT RightHand
              {
                OFFSET 26.5114 0 -0.101894
                CHANNELS 3 Zrotation Xrotation Yrotation
                End Site
                {
                  OFFSET 18.2168 0 0
                }
              }
            }
          }
        }
      }
    }
  }
  JOINT LeftUpLeg
  {
    OFFSET -4.76168 -1.9167 -10.2353
    CHANNELS 3 Zrotation Xrotation Yrotation
    JOINT LeftLeg
    {
      OFFSET 2.55951 -42.0585 -8.02213
      CHANNELS 3 Zrotation Xrotation Yrotation
      JOINT LeftFoot
      {
        OFFSET 3.16357 -42.5282 -3.95426
        CHANNELS 3 Zrotation Xrotation Yrotation
        JOINT LeftToeBase
        {
          OFFSET 0.346054 -6.02161 12.8035
          CHANNELS 3 Zrotation Xrotation Yrotation
          End Site
          {
            OFFSET 0.134235 -1.35082 5.13018
          }
        }
      }
    }
  }
  JOINT RightUpLeg
  {
    OFFSET -4.94151 -1.41743 10.6446
    CHANNELS 3 Zrotation Xrotation Yrotation
    JOINT RightLeg
    {
      OFFSET -2.56294 -42.0364 -7.94377
      CHANNELS 3 Zrotation Xrotation Yrotation
      JOINT RightFoot
      {
        OFFSET -3.0952 -42.555 -4.02241
        CHANNELS 3 Zrotation Xrotation Yrotation
        JOINT RightToeBase
        {
          OFFSET -0.0828122 -6.13587 12.8035
          CHANNELS 3 Zrotation Xrotation Yrotation
          End Site
          {
            OFFSET -0.131328 -1.35082 5.13018
          }
        }
      }
    }
  }
}
MOTION
Frames:	20
Frame Time:	0.0333333
54.8402 91.1359 8.35894 -66.6851 -30.1762 -171.304 -70.1915 0 88.8779 78.8192 68.6331 6.77967 5.48275 18.3786 0.234556 -149.919 26.5378 173.372 -167.795 66.3611 -170.578 -0.251622 -15.7162 -34.1138 -81.8474 42.2816 -79.0086 6.78736 11.8882 -29.7495 0.420957 0.000575542 0.35866 -1.76243 5.77442 45.0849 -66.9021 -35.6597 83.1148 6.55334 -12.5555 28.0345 0.58676 0.000331026 0.0646652 -45.1909 7.45235 92.1508 -34.8658 81.998 18.3973 -3.78548 4.95615 0.945377 3.5189 -9.38957 8.40587 -34.3548 16.4976 84.2847 1.54903 41.231 -1.84596 -11.747 -10.5581 1.41206 0.90363 6.82118 -7.82325 
50.6278 92.344 10.5906 -67.1036 -25.7593 -173.826 -70.1915 0 88.8779 75.1847 69.3005 9.4251 5.67858 19.4012 -0.295887 -147.794 26.4226 169.992 -162.349 66.269 -175.513 -0.324655 -16.0769 -33.8911 -82.9364 43.3624 -75.5895 7.3076 13.789 -28.613 0.420957 0.000575542 0.35866 -1.84939 5.82671 46.2285 -68.3233 -34.8889 83.5396 9.48296 -15.081 32.7859 0.58676 0.000331026 0.0646652 -39.5212 6.04107 90.2224 -31.5079 81.7966 19.0204 -2.19126 1.99767 0.385949 4.00457 -9.90293 6.42547 -39.5701 17.4045 86.4839 1.5525 38.5439 -0.386742 -11.2625 -12.1704 1.36057 0.69648 9.81385 -7.61164 
46.5271 93.6155 12.6639 -66.9434 -21.1086 -176.164 -70.1915 0 88.8779 71.7734 70.3088 11.8922 5.35482 20.6993 -0.231069 -147.362 26.5319 168.9 -162.932 66.5284 -174.843 -0.278846 -15.9985 -33.3903 -83.431 44.7854 -73.4422 7.73001 16.1349 -27.6426 0.420957 0.000575542 0.35866 -1.74464 5.57679 45.8492 -69.5426 -35.535 84.4927 12.0817 -16.603 36.8734 0.58676 0.000331026 0.0646652 -34.4506 4.44294 88.4867 -19.5269 78.2731 8.98321 -1.25525 -0.760527 0.00412903 4.03852 -10.3511 8.70847 -44.6522 17.3735 87.8552 1.44161 34.7743 1.78292 -13.1295 -9.60087 1.49963 0.723149 4.36011 -6.27078 
42.478 94.4934 14.7912 -66.484 -16.3283 -178.689 -70.1915 0 88.8779 69.264 71.0474 13.9597 4.74297 21.7294 -0.3284 -148.431 26.6203 169.817 -163.897 66.5471 -174.557 -0.145359 -15.4071 -33.4386 -83.9506 45.9423 -71.5586 7.56581 17.6554 -26.7383 0.420957 0.000575542 0.35866 -1.76828 5.80127 45.0407 -69.6958 -36.2025 86.1213 13.0366 -15.9967 40.0619 0.58676 0.000331026 0.0646652 -30.8932 2.92924 87.7106 -10.6818 71.1498 0.625788 -0.151304 -3.99865 -0.389322 4.2596 -11.3642 13.0387 -49.0163 17.2587 90.4658 0.447116 32.6404 3.90447 -11.5283 -9.02638 1.43879 1.03662 0.777706 -6.73432 
38.4042 95.1571 17.0055 -66.0255 -11.4324 179.209 -70.1915 0 88.8779 68.8766 71.8329 15.148 4.11475 22.8259 -0.9923 -149.847 26.3255 170.855 -164.784 66.1754 -174.284 -0.148337 -15.3688 -33.6807 -83.7018 47.445 -69.5896 8.20809 17.4343 -27.5599 0.420957 0.000575542 0.35866 -1.82211 6.0827 44.4809 -69.1952 -36.3157 88.1308 13.9339 -15.5027 42.8823 0.58676 0.000331026 0.0646652 -28.4661 2.64967 87.5502 -5.84262 61.327 -2.76235 -1.0711 -5.19595 -0.408476 5.69681 -13.2818 9.34995 -52.7315 15.1526 88.3916 -0.539749 31.0267 7.97986 -9.77064 -9.32382 1.3466 -0.323408 0.597959 1.41994 
34.0523 95.3519 19.3167 -65.4017 -7.02058 177.409 -70.1915 0 88.8779 68.6007 72.4236 16.7357 3.7725 23.7081 -1.77444 -152.027 25.9186 173.077 -167.434 65.7175 -172.769 -0.155766 -15.3222 -34.0583 -84.0412 48.6506 -67.9042 7.70573 16.6174 -27.3917 0.420957 0.000575542 0.35866 -1.72847 6.02516 43.2762 -68.728 -36.6368 90.1492 15.7022 -15.7392 46.0139 0.58676 0.000331026 0.0646652 -27.0027 2.55355 87.5353 -3.80487 50.0688 -6.78993 -2.71298 -4.34512 -0.183342 7.81919 -17.0666 18.4943 -56.2026 12.9078 86.3709 -1.06409 29.9343 14.2785 -13.0335 -7.55378 1.56886 1.22086 -7.39295 -3.39055 
29.4989 95.0512 21.3964 -64.7458 -3.75602 177.073 -70.1915 0 88.8779 68.0405 72.2626 19.3816 4.33313 23.7929 -2.44363 -154.04 25.6893 174.824 -166.999 65.4 -173.004 -0.139697 -15.2345 -34.1547 -83.6592 50.2671 -67.3389 7.27039 15.4254 -27.5081 0.420957 0.000575542 0.35866 -1.71048 6.20532 42.15 -68.0509 -36.5423 92.0199 17.7366 -15.9376 49.3205 0.58676 0.000331026 0.0646652 -25.7483 3.01679 86.2667 -2.71592 39.2236 -8.52164 -2.42883 -8.44388 -0.622499 6.17172 -14.5055 14.7461 -59.8477 11.0079 83.8705 -0.0242669 28.2999 19.2063 -15.0385 -4.06129 1.88341 2.22329 -17.7853 -5.74334 
25.072 94.5589 23.1539 -64.1354 -1.30866 176.302 -70.1915 0 88.8779 68.1324 72.2567 19.9716 4.61127 23.8588 -2.86738 -156.727 24.9005 176.632 -167.949 64.6287 -173.524 -0.102658 -15.1326 -33.8773 -83.488 51.5988 -67.1856 7.463 15.4201 -27.7526 0.420957 0.000575542 0.35866 -1.73076 6.37214 41.7197 -67.8427 -35.6668 92.9349 19.581 -15.7937 52.5262 0.58676 0.000331026 0.0646652 -24.1951 3.29349 87.9613 -0.990658 29.363 -14.9711 -2.3366 -8.81039 -0.664517 8.33674 -17.7675 16.557 -63.4206 9.36661 83.5954 -0.414255 26.4611 21.2484 -11.2033 -5.15077 1.49875 2.15636 -17.4559 -0.608656 
20.5326 93.8318 24.7698 -64.136 1.52683 175.406 -70.1915 0 88.8779 72.0037 73.0777 16.6486 3.88541 24.434 -2.95202 -158.98 24.3003 178.094 -168.911 64.1079 -174.243 -0.0361221 -14.8651 -33.7856 -84.4694 51.7534 -66.7157 8.51885 18.0728 -27.6131 0.420957 0.000575542 0.35866 -1.75806 6.54442 41.3907 -67.5918 -34.9699 93.463 19.2547 -14.3383 54.6113 0.58676 0.000331026 0.0646652 -23.3922 4.74718 92.461 -0.0781065 22.7383 -19.2593 -3.08138 -9.08859 -0.655689 9.88581 -19.9759 16.5742 -66.1502 7.94763 83.6716 -1.4768 27.4483 26.6965 -10.9219 -6.3805 1.45361 1.75651 -13.9242 -1.39277 
15.7413 92.9228 26.4605 -64.7056 4.30692 173.939 -70.1915 0 88.8779 77.23 74.0586 11.0345 3.19043 25.2317 -3.28566 -160.353 23.2749 177.838 -168.067 63.0764 -174.965 0.0398861 -14.5692 -33.6114 -84.739 51.5131 -66.7366 9.91501 19.7932 -28.3675 0.420957 0.000575542 0.35866 -1.79152 6.60828 41.6182 -68.1247 -34.3953 93.6583 20.7845 -15.0712 55.521 0.58676 0.000331026 0.0646652 -23.3385 4.86564 93.1118 -0.762444 21.3896 -16.0805 -2.74026 -9.00949 -0.664325 9.99582 -20.0959 17.5848 -68.6005 5.79128 85.1484 -2.52574 29.8526 27.01 -8.58007 -6.35511 1.27924 1.67231 -15.4056 7.87897 
10.1269 91.9037 27.9818 -65.3283 5.80766 173.143 -70.1915 0 88.8779 79.8122 74.5894 7.14876 1.94904 25.423 -2.17227 -160.14 22.7303 177.004 -166.873 62.4333 -176.38 -8.49405e-005 -14.6726 -33.9928 -84.0135 50.4465 -67.5011 9.29815 19.4728 -27.8383 0.420957 0.000575542 0.35866 -1.77341 6.48513 41.8746 -68.5734 -34.4466 92.9332 20.0436 -15.1704 54.2903 0.58676 0.000331026 0.0646652 -23.5763 3.72343 92.9614 -1.20033 24.7766 -12.7021 -2.22044 -9.76713 -0.766185 9.82886 -19.8133 19.2769 -71.0668 4.53298 88.1024 -2.16207 33.2153 29.5048 -10.3578 -2.3639 1.46086 2.72803 -21.8185 0.192925 
4.21899 90.9211 29.367 -65.5108 5.78335 172.9 -70.1915 0 88.8779 75.2719 74.2544 10.75 2.46754 25.1658 -1.99189 -159.313 22.3993 175.716 -166.629 62.0487 -176.786 0.0310615 -14.5459 -33.958 -84.8994 48.8438 -67.7488 9.3419 21.8396 -26.9215 0.420957 0.000575542 0.35866 -1.82538 6.5135 42.5296 -69.784 -34.8543 90.7476 18.6183 -15.3914 51.7246 0.58676 0.000331026 0.0646652 -22.941 1.85359 92.7006 -2.17812 30.8628 -11.9068 -1.50432 -5.35833 -0.387174 7.74918 -16.8418 13.4528 -72.7852 4.35061 95.7874 1.20771 35.8934 15.5701 -4.94131 1.58424 0.732962 3.57463 -22.6636 17.6192 
-1.94858 90.4498 30.4892 -65.9918 5.22999 171.926 -70.1915 0 88.8779 70.6515 74.0888 12.3443 1.77042 24.7412 -0.394855 -157.37 22.1225 173.621 -164.755 61.6066 -178.871 -0.0215384 -14.7604 -34.0128 -86.9613 47.3396 -66.2862 9.67291 23.388 -26.6279 0.420957 0.000575542 0.35866 -1.86525 6.40661 43.6072 -70.779 -35.172 88.0926 17.5742 -16.5711 47.9669 0.58676 0.000331026 0.0646652 -23.078 -1.02939 90.3023 -2.82456 37.0586 -11.2006 -5.78343 -0.232164 0.628582 7.18761 -15.7874 9.32859 -71.5641 2.2071 96.1195 3.51904 42.2499 14.1503 -0.99841 13.7332 -0.652939 5.20387 -26.7976 21.5631 
-7.67664 90.5052 31.3812 -66.6614 5.37786 171.712 -70.1915 0 88.8779 72.9297 74.1419 8.56801 0.432009 24.4428 0.590207 -156.326 21.8264 173.202 -164.934 61.3294 -178.757 -0.107462 -15.2113 -33.5894 -86.1804 46.3529 -67.8349 8.82768 22.6287 -26.1129 0.420957 0.000575542 0.35866 -1.93678 6.42382 44.6012 -70.874 -35.3575 86.5317 14.8105 -16.3702 43.1731 0.58676 0.000331026 0.0646652 -23.9451 -1.98564 91.6855 -3.4444 43.4669 -11.2755 -0.878669 -1.66504 -0.119628 4.37599 -10.5574 6.28335 -66.7603 1.98985 96.4188 5.38504 53.9026 14.2409 7.03646 21.9826 -3.77158 1.79459 -14.833 0.638821 
-12.7301 91.072 32.2494 -67.511 5.97044 171.306 -70.1915 0 88.8779 76.9388 74.0147 3.90203 0.0807213 24.147 0.504631 -155.951 21.3095 173.702 -165.061 60.817 -178.295 -0.208091 -15.5946 -33.824 -84.8984 44.9359 -70.4729 8.80202 22.066 -26.301 0.420957 0.000575542 0.35866 -1.9552 6.53152 44.3747 -69.2571 -35.9504 87.6686 12.2877 -16.1833 38.0426 0.58676 0.000331026 0.0646652 -27.0552 -4.20027 90.7369 -3.5644 45.7931 -9.65664 0.928731 -4.42751 -0.521233 2.49146 -7.32232 7.29089 -59.1739 1.87591 96.1216 7.24851 66.0061 1.00829 0.293899 21.8766 -1.60944 1.54015 -13.2513 1.59327 
-17.8838 92.2237 33.1407 -68.4387 7.00253 171.381 -70.1915 0 88.8779 80.5868 73.688 0.836653 0.44955 23.792 0.0977572 -156.225 20.4829 175.59 -167.055 60.0903 -176.793 -0.287532 -15.854 -34.1756 -81.9231 43.7639 -74.4357 9.11755 20.7044 -27.1572 0.420957 0.000575542 0.35866 -1.95893 6.65019 43.8918 -67.3965 -36.2908 88.655 11.2543 -16.8077 34.5813 0.58676 0.000331026 0.0646652 -31.9585 -4.81211 91.5494 -3.4117 45.1505 -8.97161 2.85799 -7.20697 -0.845863 1.7208 -6.21954 8.46942 -51.8575 2.20192 95.2659 9.25371 73.1593 -8.78429 -10.1836 14.8046 1.62255 2.12581 -17.4868 3.71839 
-22.8568 93.5039 33.7639 -68.5164 7.60262 172.472 -70.1915 0 88.8779 83.0301 72.9047 0.23383 0.459696 23.0905 -0.570667 -155.355 19.6907 176.604 -166.621 59.2244 -177.065 -0.254327 -15.7562 -33.9851 -79.9269 42.9377 -77.4589 10.0545 19.5252 -28.7059 0.420957 0.000575542 0.35866 -1.96183 6.56234 44.3311 -66.6478 -36.0234 87.6724 10.6469 -17.0549 32.7127 0.58676 0.000331026 0.0646652 -36.5908 -4.73716 91.0178 -3.10532 43.0253 -8.25167 3.65362 -8.4708 -0.958297 2.37819 -7.00955 6.83915 -44.3779 3.59065 93.4569 8.81068 75.2532 -14.1052 -12.2659 8.37599 1.97388 2.28607 -18.4827 1.31792 
-28.1196 94.5862 34.3157 -68.9918 7.41742 173.744 -70.1915 0 88.8779 85.3903 71.9729 -0.701609 0.499967 22.123 -0.791927 -154.372 19.0282 177.294 -166.007 58.4723 -177.273 -0.278105 -15.8876 -33.8519 -79.7342 41.714 -78.8857 10.4622 17.7267 -30.8309 0.420957 0.000575542 0.35866 -1.92511 6.39701 44.5524 -66.0462 -36.0093 86.0733 8.88994 -14.8064 31.5682 0.58676 0.000331026 0.0646652 -41.6845 -5.0025 90.2397 -3.04116 40.8356 -9.6223 4.40862 -9.53154 -1.04311 2.47508 -7.82142 9.66714 -38.7963 4.29634 90.7387 6.49056 72.5206 -13.0998 -11.055 2.26684 1.62091 2.32859 -19.0352 -4.23495 
-33.2952 95.5395 34.7866 -69.3145 6.16411 174.425 -70.1915 0 88.8779 85.7992 70.9436 -1.66016 0.280764 20.6966 0.319311 -153.98 18.4399 177.561 -165.104 57.7734 -178.261 -0.207943 -15.7023 -33.3359 -80.3063 40.8816 -80.3095 11.1314 17.296 -33.086 0.420957 0.000575542 0.35866 -1.86124 6.20255 44.5068 -67.3893 -36.0522 83.3289 8.91197 -15.2172 30.9492 0.58676 0.000331026 0.0646652 -47.1018 -6.14456 89.435 -2.74514 37.0027 -10.2135 5.3728 -8.46451 -1.05185 3.61321 -9.9433 10.6319 -34.6119 3.46945 88.3301 3.93087 65.8184 -10.2822 -7.69833 -3.60515 1.18361 2.16214 -15.9965 -9.21231 
-38.4322 95.5982 35.0832 -68.6051 5.61683 174.536 -70.1915 0 88.8779 82.385 70.2975 1.72658 0.715058 19.9992 0.559927 -153.448 18.1878 177.904 -164.562 57.4741 -177.727 -0.241931 -15.9367 -32.97 -81.3136 39.6888 -81.5973 10.575 15.2882 -34.9097 0.420957 0.000575542 0.35866 -1.83473 6.1326 44.4345 -68.3983 -35.978 81.072 8.15359 -14.211 30.3793 0.58676 0.000331026 0.0646652 -50.0891 -6.19863 91.7031 -1.85851 35.8123 -11.3023 5.18762 -10.6102 -1.11538 3.48819 -9.16756 7.51093 -30.6724 3.21876 86.6657 2.46132 56.203 -6.37812 -10.4558 -2.01635 1.4761 2.064 -22.8988 -18.7712 
